<svg xmlns="http://www.w3.org/2000/svg" viewBox="0 0 13.6 21.6">
  <defs>
    <style>
      .cls-1 {
        fill: #fdfdfd;
      }
    </style>
  </defs>
  <g id="Groupe_2181" data-name="Groupe 2181" transform="translate(-707 -255)">
    <path id="Tracé_4401" data-name="Tracé 4401" class="cls-1" d="M6.8,2a14.681,14.681,0,0,1,6.1,1.4l.7-2A18.385,18.385,0,0,0,6.8,0,18.385,18.385,0,0,0,0,1.4l.7,2A14.681,14.681,0,0,1,6.8,2Z" transform="translate(707 255)"/>
    <circle id="Ellipse_5558" data-name="Ellipse 5558" class="cls-1" cx="1" cy="1" r="1" transform="translate(711.3 260.9)"/>
    <circle id="Ellipse_5559" data-name="Ellipse 5559" class="cls-1" cx="0.5" cy="0.5" r="0.5" transform="translate(714.3 265.9)"/>
    <path id="Tracé_4402" data-name="Tracé 4402" class="cls-1" d="M6.8,3A14.824,14.824,0,0,0,1,4.3L6.8,21.6,12.6,4.3A15.225,15.225,0,0,0,6.8,3ZM3.3,6.9a2,2,0,1,1,2,2A2.006,2.006,0,0,1,3.3,6.9Zm3,8.9a.5.5,0,1,1,.5-.5A.472.472,0,0,1,6.3,15.8Zm1.5-2.9a1.5,1.5,0,1,1,1.5-1.5A1.612,1.612,0,0,1,7.8,12.9Zm1.4-5a.458.458,0,0,1-.4-.5.458.458,0,0,1,.4-.5.536.536,0,0,1,.5.5A.472.472,0,0,1,9.2,7.9Z" transform="translate(707 255)"/>
  </g>
</svg>
