<svg xmlns="http://www.w3.org/2000/svg" viewBox="0 0 25.957 22.4">
  <defs>
    <style>
      .cls-1 {
        fill: #3f484d;
      }
    </style>
  </defs>
  <g id="Groupe_2139" data-name="Groupe 2139" transform="translate(-384.318 -675)">
    <path id="Tracé_5118" data-name="Tracé 5118" class="cls-1" d="M9.945,0C6.567,0,3.9,3.2,3.9,7.111a3.025,3.025,0,0,0,.178,1.244h0a6.527,6.527,0,0,0,1.6,3.555l.533.533a5.71,5.71,0,0,0,3.911,1.778,5.386,5.386,0,0,0,3.911-1.778l.533-.533a7.155,7.155,0,0,0,1.6-3.555h0c0-.356.178-.889.178-1.422C16.167,3.2,13.323,0,9.945,0Z" transform="translate(387.352 675)"/>
    <path id="Tracé_5119" data-name="Tracé 5119" class="cls-1" d="M18.668,7.5a7.547,7.547,0,0,1-5.689,2.667A7.547,7.547,0,0,1,7.289,7.5C3.378,8.211.356,11.944,0,16.566H25.957C25.779,11.944,22.757,8.211,18.668,7.5Z" transform="translate(384.318 680.834)"/>
  </g>
</svg>
