<svg xmlns="http://www.w3.org/2000/svg" viewBox="0 0 18.326 21.3">
  <defs>
    <style>
      .cls-1 {
        fill: #fff;
      }
    </style>
  </defs>
  <g id="Groupe_1845" data-name="Groupe 1845" transform="translate(-443 -1328)">
    <path id="Tracé_4414" data-name="Tracé 4414" class="cls-1" d="M3.8,16.3V.6A.576.576,0,0,0,3.2,0H.6A.645.645,0,0,0,0,.6V20.7a.645.645,0,0,0,.6.6H3.2a.645.645,0,0,0,.6-.6V17.4H0V16.3H3.8ZM.7,2.9H3.1V4H.7Z" transform="translate(443 1328)"/>
    <path id="Tracé_4415" data-name="Tracé 4415" class="cls-1" d="M12,15.6,7.6.5c0-.4-.4-.5-.7-.4L4.4.8a.569.569,0,0,0-.4.7L9.6,20.8a.569.569,0,0,0,.7.4l2.5-.7a.569.569,0,0,0,.4-.7l-.9-3.2L8.6,17.7l-.3-1ZM5.3,3.5l2.3-.7.3,1-2.3.7Z" transform="translate(443 1328)"/>
    <path id="Tracé_4416" data-name="Tracé 4416" class="cls-1" d="M16.1,15.6,11.7.5A.505.505,0,0,0,11,.1L8.5.8a.569.569,0,0,0-.4.7l5.6,19.3a.569.569,0,0,0,.7.4l2.5-.7a.569.569,0,0,0,.4-.7l-.9-3.2-3.7,1.1-.3-1ZM9.4,3.5l2.3-.7.3,1-2.3.7Z" transform="translate(444 1328)"/>
  </g>
</svg>
