<svg xmlns="http://www.w3.org/2000/svg" viewBox="0 0 9.965 8.6">
  <defs>
    <style>
      .cls-1 {
        fill: #fff;
      }
    </style>
  </defs>
  <g id="Groupe_2180" data-name="Groupe 2180" transform="translate(-575.318 -255)">
    <path id="Tracé_5058" data-name="Tracé 5058" class="cls-1" d="M6.221,0A2.544,2.544,0,0,0,3.9,2.73a1.161,1.161,0,0,0,.068.478h0a2.506,2.506,0,0,0,.614,1.365l.2.2a2.192,2.192,0,0,0,1.5.683,2.068,2.068,0,0,0,1.5-.683l.2-.2a2.747,2.747,0,0,0,.614-1.365h0c0-.137.068-.341.068-.546A2.681,2.681,0,0,0,6.221,0Z" transform="translate(574.08 255)"/>
    <path id="Tracé_5059" data-name="Tracé 5059" class="cls-1" d="M7.167,7.5A2.9,2.9,0,0,1,4.983,8.524,2.9,2.9,0,0,1,2.8,7.5,3.685,3.685,0,0,0,0,10.981H9.965A3.542,3.542,0,0,0,7.167,7.5Z" transform="translate(575.318 252.619)"/>
  </g>
</svg>
