<svg xmlns="http://www.w3.org/2000/svg" viewBox="0 0 18.5 18.1">
  <defs>
    <style>
      .cls-1 {
        fill: #fff;
      }
    </style>
  </defs>
  <g id="Groupe_1844" data-name="Groupe 1844" transform="translate(-56 -360)">
    <path id="Tracé_4408" data-name="Tracé 4408" class="cls-1" d="M11.7,14.4A7.7,7.7,0,0,1,4,6.7a5.867,5.867,0,0,1,.4-2.3A7.064,7.064,0,0,0,.2,10.9a7.3,7.3,0,0,0,.9,3.5L0,18.1,3.8,17a7.3,7.3,0,0,0,3.5.9,7.035,7.035,0,0,0,6.2-3.7A5.537,5.537,0,0,1,11.7,14.4Z" transform="translate(56 360)"/>
    <path id="Tracé_4409" data-name="Tracé 4409" class="cls-1" d="M18.5,6.7a6.75,6.75,0,1,0-6.8,6.7,6.4,6.4,0,0,0,3.4-.9l3.3.9-.9-3.3A6.461,6.461,0,0,0,18.5,6.7ZM8.8,7.8A1.1,1.1,0,1,1,9.9,6.7,1.11,1.11,0,0,1,8.8,7.8Zm2.9,0a1.1,1.1,0,1,1,1.1-1.1A1.049,1.049,0,0,1,11.7,7.8Zm3,0a1.1,1.1,0,1,1,1.1-1.1A1.11,1.11,0,0,1,14.7,7.8Z" transform="translate(56 360)"/>
  </g>
</svg>
