<svg xmlns="http://www.w3.org/2000/svg" viewBox="0 0 15.805 21.178">
  <defs>
    <style>
      .cls-1 {
        fill: #fff;
      }
    </style>
  </defs>
  <path id="Soustraction_530" data-name="Soustraction 530" class="cls-1" d="M-1808.056,7879.178a.056.056,0,0,1-.041-.015c-.806-.805-7.9-9.069-7.9-13.26a7.911,7.911,0,0,1,7.9-7.9,7.911,7.911,0,0,1,7.9,7.9C-1800.195,7870.16-1807.249,7879.177-1808.056,7879.178Zm-.041-17.83a3.755,3.755,0,0,0-3.75,3.751,3.754,3.754,0,0,0,3.75,3.75,3.754,3.754,0,0,0,3.75-3.75A3.755,3.755,0,0,0-1808.1,7861.348Z" transform="translate(1816 -7858)"/>
</svg>
