<svg xmlns="http://www.w3.org/2000/svg" viewBox="0 0 15.577 13.595">
  <defs>
    <style>
      .cls-1 {
        fill: #fcfcfd;
      }
    </style>
  </defs>
  <path id="Soustraction_529" data-name="Soustraction 529" class="cls-1" d="M2.151,13.595h0l.822-2.548A2.977,2.977,0,0,1,0,8.072v-5.1A2.977,2.977,0,0,1,2.974,0H12.6a2.977,2.977,0,0,1,2.974,2.974v5.1A2.978,2.978,0,0,1,12.6,11.046H8.5L2.152,13.594Zm8.681-8.765a.984.984,0,1,0,.984.984A.985.985,0,0,0,10.833,4.829Zm-2.968,0a.984.984,0,1,0,.984.984A.985.985,0,0,0,7.865,4.829Zm-2.967,0a.984.984,0,1,0,.984.984A.985.985,0,0,0,4.9,4.829Z"/>
</svg>
