<svg xmlns="http://www.w3.org/2000/svg" viewBox="0 0 12.619 14.8">
  <defs>
    <style>
      .cls-1 {
        fill: #3f484d;
      }
    </style>
  </defs>
  <path id="Tracé_4418" data-name="Tracé 4418" class="cls-1" d="M11.756,5.267c-.686-.927-2.133-1.91-5.063-1.5a2.486,2.486,0,0,1,2.43-2.04V.983A3.189,3.189,0,0,0,6.23,2.819,3.4,3.4,0,0,0,3.485.278L1.8,0A3.426,3.426,0,0,0,3.856,3.709,4.134,4.134,0,0,0,.814,5.267C-.317,6.769-.3,9.218.833,11.5c1.02,2.04,2.671,3.3,4.3,3.3H7.416c1.632,0,3.283-1.261,4.3-3.3C12.869,9.218,12.888,6.769,11.756,5.267Z" transform="translate(0.025)"/>
</svg>
