<svg xmlns="http://www.w3.org/2000/svg" viewBox="0 0 14.6 19.73">
  <defs>
    <style>
      .cls-1 {
        fill: #3f484d;
      }
    </style>
  </defs>
  <path id="Tracé_4413" data-name="Tracé 4413" class="cls-1" d="M13.772,9.47H11.838V7.853a1.971,1.971,0,0,0-.02-3.867A3.553,3.553,0,0,0,8.287.789,3.759,3.759,0,0,0,7.221.947,2.812,2.812,0,0,0,5.13,0,2.752,2.752,0,0,0,2.486,1.973,1.962,1.962,0,0,0,1.144,3.847a1.3,1.3,0,0,0,.02.276A1.948,1.948,0,0,0,0,5.919,1.969,1.969,0,0,0,1.578,7.853v9.9A1.979,1.979,0,0,0,3.551,19.73H9.865a1.979,1.979,0,0,0,1.973-1.973V16.573h1.934a.834.834,0,0,0,.829-.829V10.3A.834.834,0,0,0,13.772,9.47ZM8.681,14.6H7.892V7.616a3.236,3.236,0,0,1-.789.848V14.6H6.314V8.878a2.7,2.7,0,0,1-.789.178V14.6H4.735V9.036A2.8,2.8,0,0,1,3.946,8.8v5.8H3.157V8.306a2.913,2.913,0,0,1-.848-1.2H1.973A1.187,1.187,0,0,1,.789,5.919a1.161,1.161,0,0,1,.927-1.144l.434-.1-.158-.414a1.4,1.4,0,0,1-.079-.395A1.182,1.182,0,0,1,2.881,2.7l.256-.059L3.2,2.387a1.971,1.971,0,0,1,3.551-.73l.178.256.3-.118a2.936,2.936,0,0,1,1.065-.217,2.77,2.77,0,0,1,2.762,2.762v.395h.395a1.184,1.184,0,1,1,0,2.368H8.148a2.455,2.455,0,0,1-.2.395h.73Zm1.578,0H9.47V7.5h.789Zm2.723,1.184H11.838V10.26h1.144a.834.834,0,0,1,.829.829v3.847A.838.838,0,0,1,12.982,15.784Z"/>
</svg>
