<svg xmlns="http://www.w3.org/2000/svg" viewBox="0 0 13.231 13.595">
  <defs>
    <style>
      .cls-1 {
        fill: #fcfcfd;
      }
    </style>
  </defs>
  <path id="tracé" class="cls-1" d="M11.815,8.46V5.717s-1.46-4.137-3.63-4.651A1.131,1.131,0,0,0,7.048,0,1.1,1.1,0,0,0,5.912,1.036,4.843,4.843,0,0,0,2.3,5.717V8.373c0,1.3-.853,1.521-1.864,2.578H13.664C12.654,9.894,11.815,9.758,11.815,8.46ZM7.048,13.595a2.569,2.569,0,0,0,2.4-2.115H4.652A2.57,2.57,0,0,0,7.048,13.595Z" transform="translate(-0.433)"/>
</svg>
