<svg xmlns="http://www.w3.org/2000/svg" viewBox="0 0 21.3 21.3">
  <defs>
    <style>
      .cls-1 {
        fill: #fff;
      }
    </style>
  </defs>
  <path id="Tracé_4412" data-name="Tracé 4412" class="cls-1" d="M19.549,0H1.751A1.743,1.743,0,0,0,0,1.751v17.8A1.743,1.743,0,0,0,1.751,21.3h17.8A1.743,1.743,0,0,0,21.3,19.549V1.751A1.743,1.743,0,0,0,19.549,0ZM6.808,15.562A1.362,1.362,0,1,1,8.17,14.2,1.33,1.33,0,0,1,6.808,15.562Zm0-3.6A1.33,1.33,0,0,1,5.447,10.6,1.307,1.307,0,0,1,6.808,9.337,1.33,1.33,0,0,1,8.17,10.7,1.253,1.253,0,0,1,6.808,11.963Zm0-3.6A1.311,1.311,0,0,1,5.544,7,1.226,1.226,0,0,1,6.808,5.738,1.33,1.33,0,0,1,8.17,7.1,1.253,1.253,0,0,1,6.808,8.364Zm7.683,7.2A1.362,1.362,0,1,1,15.853,14.2,1.462,1.462,0,0,1,14.492,15.562Zm0-3.6A1.362,1.362,0,1,1,15.853,10.6,1.391,1.391,0,0,1,14.492,11.963Zm0-3.6A1.362,1.362,0,1,1,15.853,7,1.391,1.391,0,0,1,14.492,8.364Z"/>
</svg>
