<svg xmlns="http://www.w3.org/2000/svg" viewBox="0 0 22.401 22.4">
  <defs>
    <style>
      .cls-1 {
        fill: #3f484d;
      }
    </style>
  </defs>
  <path id="Tracé_4424" data-name="Tracé 4424" class="cls-1" d="M11.2,0A11.2,11.2,0,1,0,22.4,11.2,11.056,11.056,0,0,0,11.2,0Zm-.7,2.9h1.6V4.5H10.5ZM4.7,12H3V10.4H4.6V12ZM6,17.6,4.8,16.4,6,15.3l1.2,1.2ZM6,7.1,4.9,5.9,6,4.8,7.2,6Zm6.1,12.4H10.5V17.9h1.6ZM15,12H10.5V5.9h1.6v4.5H15Zm1.6,5.6-1.2-1.2,1.2-1.2,1.2,1.2Zm0-10.5L15.4,5.9l1.2-1.2,1.2,1.2ZM17.9,12V10.4h1.6V12Z"/>
</svg>
